_states
version=1
nRows=17
nColumns=17
inDegrees=yes

# SIMM Motion File Header:
name _states
datacolumns 17
datarows 17
otherdata 1
range 0.00000000 0.00456167
endheader
time	/jointset/r_shoulder/r_shoulder_elev/value	/jointset/r_shoulder/r_shoulder_elev/speed	/jointset/r_elbow/r_elbow_flex/value	/jointset/r_elbow/r_elbow_flex/speed	/forceset/TRIlong/activation	/forceset/TRIlong/fiber_length	/forceset/TRIlat/activation	/forceset/TRIlat/fiber_length	/forceset/TRImed/activation	/forceset/TRImed/fiber_length	/forceset/BIClong/activation	/forceset/BIClong/fiber_length	/forceset/BICshort/activation	/forceset/BICshort/fiber_length	/forceset/BRA/activation	/forceset/BRA/fiber_length
      0.00000000	      0.00000000	      0.00000000	      0.00000000	      0.00000000	      0.05000000	      0.10000000	      0.05000000	      0.10000000	      0.05000000	      0.10000000	      0.05000000	      0.10000000	      0.05000000	      0.10000000	      0.05000000	      0.10000000
      0.00001358	     -0.00000020	     -0.03415094	     -0.00000618	     -0.80754361	      0.04999221	      0.11170588	      0.04999225	      0.09999556	      0.04999225	      0.09999556	      0.05007734	      0.10713008	      0.04999257	      0.11116884	      0.04999247	      0.09998513
      0.00003166	     -0.00000141	     -0.10164234	     -0.00002522	     -1.20692203	      0.04998183	      0.12104997	      0.04998193	      0.09998964	      0.04998194	      0.09998964	      0.05018007	      0.11486731	      0.04998269	      0.12152708	      0.04998246	      0.09996537
      0.00005563	     -0.00000495	     -0.19187073	     -0.00005462	     -1.17977740	      0.04996809	      0.12785795	      0.04996826	      0.09998180	      0.04996827	      0.09998180	      0.05031585	      0.12288888	      0.04996960	      0.13055513	      0.04996919	      0.09993924
      0.00007959	     -0.00001047	     -0.26533490	     -0.00007997	     -0.91776033	      0.04995435	      0.13139294	      0.04995459	      0.09997396	      0.04995461	      0.09997396	      0.05045122	      0.12902280	      0.04995652	      0.13629290	      0.04995592	      0.09991316
      0.00010980	     -0.00001953	     -0.32989308	     -0.00010188	     -0.53615477	      0.04993704	      0.13356866	      0.04993737	      0.09996408	      0.04993740	      0.09996408	      0.05062124	      0.13475042	      0.04994004	      0.14067945	      0.04993921	      0.09988038
      0.00014000	     -0.00003015	     -0.36931422	     -0.00011299	     -0.21350366	      0.04991974	      0.13454010	      0.04992017	      0.09995420	      0.04992020	      0.09995420	      0.05079060	      0.13880502	      0.04992358	      0.14317139	      0.04992250	      0.09984770
      0.00018270	     -0.00004660	     -0.39722669	     -0.00011490	      0.09591539	      0.04989530	      0.13510090	      0.04989586	      0.09994023	      0.04989590	      0.09994023	      0.05102885	      0.14253342	      0.04990032	      0.14496309	      0.04989890	      0.09980166
      0.00022539	     -0.00006380	     -0.40680651	     -0.00010691	      0.26076315	      0.04987087	      0.13536615	      0.04987157	      0.09992627	      0.04987162	      0.09992627	      0.05126579	      0.14472285	      0.04987709	      0.14575948	      0.04987531	      0.09975581
      0.00027738	     -0.00008509	     -0.41160407	     -0.00009037	      0.36375350	      0.04984115	      0.13554488	      0.04984202	      0.09990927	      0.04984209	      0.09990927	      0.05155257	      0.14617737	      0.04984883	      0.14621422	      0.04984662	      0.09970024
      0.00038058	     -0.00012799	     -0.41981245	     -0.00004745	      0.45387908	      0.04978223	      0.13571175	      0.04978343	      0.09987552	      0.04978353	      0.09987552	      0.05211621	      0.14728257	      0.04979285	      0.14661165	      0.04978973	      0.09959074
      0.00048377	     -0.00017171	     -0.42720581	      0.00000190	      0.49911965	      0.04972340	      0.13577946	      0.04972496	      0.09984178	      0.04972508	      0.09984178	      0.05267251	      0.14763675	      0.04973701	      0.14677562	      0.04973293	      0.09948231
      0.00068444	     -0.00025871	     -0.43969551	      0.00010826	      0.55828917	      0.04960929	      0.13582638	      0.04961155	      0.09977618	      0.04961172	      0.09977618	      0.05373386	      0.14783216	      0.04962882	      0.14688797	      0.04962275	      0.09927443
      0.00088510	     -0.00034811	     -0.45133467	      0.00022554	      0.61055797	      0.04949554	      0.13585132	      0.04949854	      0.09971061	      0.04949876	      0.09971061	      0.05476924	      0.14786898	      0.04952117	      0.14692459	      0.04951292	      0.09907036
      0.00128599	     -0.00053361	     -0.47397773	      0.00049179	      0.71868700	      0.04926936	      0.13588535	      0.04927394	      0.09957966	      0.04927426	      0.09957966	      0.05676430	      0.14789843	      0.04930764	      0.14696682	      0.04929455	      0.09867355
      0.00223998	     -0.00101090	     -0.52637113	      0.00130831	      0.99773056	      0.04873682	      0.13593754	      0.04874572	      0.09926834	      0.04874626	      0.09926834	      0.06115796	      0.14793004	      0.04880783	      0.14702712	      0.04878044	      0.09778265
      0.00456167	     -0.00237614	     -0.64860520	      0.00449769	      1.76796192	      0.04747356	      0.13601306	      0.04749619	      0.09851247	      0.04749725	      0.09851247	      0.07021312	      0.14795624	      0.04763925	      0.14711126	      0.04756117	      0.09587514
